<svg xmlns="http://www.w3.org/2000/svg" viewBox="0 0 800 500" width="800" height="500">
  <defs>
    <style>
      .axis-line { stroke: #333; stroke-width: 1.5; }
      .grid-line { stroke: #e5e5e5; stroke-width: 0.5; }
      .axis-label { font-family: -apple-system, BlinkMacSystemFont, "Segoe UI", Roboto, sans-serif; font-size: 14px; fill: #333; }
      .tick-label { font-family: -apple-system, BlinkMacSystemFont, "Segoe UI", Roboto, sans-serif; font-size: 12px; fill: #666; }
      .title { font-family: -apple-system, BlinkMacSystemFont, "Segoe UI", Roboto, sans-serif; font-size: 16px; fill: #1a1a1a; font-weight: 500; }
      .signal-line { stroke: #2563eb; stroke-width: 2; fill: none; }
      .background-line { stroke: #9ca3af; stroke-width: 2; fill: none; stroke-dasharray: 5,3; }
      .data-point { fill: #1a1a1a; }
      .legend-text { font-family: -apple-system, BlinkMacSystemFont, "Segoe UI", Roboto, sans-serif; font-size: 12px; fill: #333; }
    </style>
  </defs>
  
  <!-- Background -->
  <rect width="800" height="500" fill="#fafafa"/>
  
  <!-- Grid lines -->
  <g class="grid">
    <!-- Horizontal grid -->
    <line x1="80" y1="100" x2="750" y2="100" class="grid-line"/>
    <line x1="80" y1="150" x2="750" y2="150" class="grid-line"/>
    <line x1="80" y1="200" x2="750" y2="200" class="grid-line"/>
    <line x1="80" y1="250" x2="750" y2="250" class="grid-line"/>
    <line x1="80" y1="300" x2="750" y2="300" class="grid-line"/>
    <line x1="80" y1="350" x2="750" y2="350" class="grid-line"/>
    <line x1="80" y1="400" x2="750" y2="400" class="grid-line"/>
    <!-- Vertical grid -->
    <line x1="180" y1="50" x2="180" y2="420" class="grid-line"/>
    <line x1="280" y1="50" x2="280" y2="420" class="grid-line"/>
    <line x1="380" y1="50" x2="380" y2="420" class="grid-line"/>
    <line x1="480" y1="50" x2="480" y2="420" class="grid-line"/>
    <line x1="580" y1="50" x2="580" y2="420" class="grid-line"/>
    <line x1="680" y1="50" x2="680" y2="420" class="grid-line"/>
  </g>
  
  <!-- Axes -->
  <line x1="80" y1="420" x2="750" y2="420" class="axis-line"/>
  <line x1="80" y1="50" x2="80" y2="420" class="axis-line"/>
  
  <!-- X-axis ticks and labels -->
  <text x="80" y="445" class="tick-label" text-anchor="middle">0</text>
  <text x="180" y="445" class="tick-label" text-anchor="middle">10</text>
  <text x="280" y="445" class="tick-label" text-anchor="middle">20</text>
  <text x="380" y="445" class="tick-label" text-anchor="middle">30</text>
  <text x="480" y="445" class="tick-label" text-anchor="middle">40</text>
  <text x="580" y="445" class="tick-label" text-anchor="middle">50</text>
  <text x="680" y="445" class="tick-label" text-anchor="middle">60</text>
  <text x="750" y="445" class="tick-label" text-anchor="middle">70</text>
  
  <!-- Y-axis ticks and labels -->
  <text x="70" y="425" class="tick-label" text-anchor="end">0</text>
  <text x="70" y="355" class="tick-label" text-anchor="end">200</text>
  <text x="70" y="285" class="tick-label" text-anchor="end">400</text>
  <text x="70" y="215" class="tick-label" text-anchor="end">600</text>
  <text x="70" y="145" class="tick-label" text-anchor="end">800</text>
  <text x="70" y="75" class="tick-label" text-anchor="end">1000</text>
  
  <!-- Axis labels -->
  <text x="415" y="480" class="axis-label" text-anchor="middle">Time (μs)</text>
  <text x="25" y="235" class="axis-label" text-anchor="middle" transform="rotate(-90 25 235)">Counts</text>
  
  <!-- Title -->
  <text x="415" y="30" class="title" text-anchor="middle">Muon Decay with g-2 Precession (Simulated)</text>
  
  <!-- Signal curve (oscillating decay) -->
  <path class="signal-line" d="M 80 65 
    Q 90 80 100 110
    Q 110 130 120 125
    Q 130 115 140 135
    Q 150 165 160 155
    Q 170 140 180 165
    Q 190 200 200 185
    Q 210 165 220 195
    Q 230 235 240 215
    Q 250 190 260 225
    Q 270 265 280 245
    Q 290 220 300 255
    Q 310 290 320 270
    Q 330 250 340 280
    Q 350 310 360 295
    Q 370 275 380 300
    Q 390 325 400 315
    Q 410 300 420 320
    Q 430 340 440 332
    Q 450 320 460 338
    Q 470 355 480 348
    Q 490 338 500 352
    Q 510 365 520 360
    Q 530 352 540 362
    Q 550 372 560 368
    Q 570 362 580 370
    Q 590 378 600 375
    Q 610 370 620 376
    Q 630 382 640 380
    Q 650 377 660 381
    Q 670 385 680 384
    Q 690 382 700 385
    Q 710 388 720 387
    Q 730 386 740 388
    L 750 389"/>
  
  <!-- Background curve (smooth exponential) -->
  <path class="background-line" d="M 80 95
    Q 130 145 180 185
    Q 230 220 280 250
    Q 330 275 380 295
    Q 430 312 480 328
    Q 530 342 580 354
    Q 630 364 680 372
    Q 730 379 750 382"/>
  
  <!-- Data points (sample scatter) -->
  <circle cx="90" cy="72" r="3" class="data-point"/>
  <circle cx="110" cy="118" r="3" class="data-point"/>
  <circle cx="130" cy="128" r="3" class="data-point"/>
  <circle cx="150" cy="162" r="3" class="data-point"/>
  <circle cx="170" cy="148" r="3" class="data-point"/>
  <circle cx="190" cy="192" r="3" class="data-point"/>
  <circle cx="210" cy="175" r="3" class="data-point"/>
  <circle cx="230" cy="228" r="3" class="data-point"/>
  <circle cx="250" cy="198" r="3" class="data-point"/>
  <circle cx="270" cy="258" r="3" class="data-point"/>
  <circle cx="290" cy="232" r="3" class="data-point"/>
  <circle cx="310" cy="282" r="3" class="data-point"/>
  <circle cx="330" cy="260" r="3" class="data-point"/>
  <circle cx="350" cy="305" r="3" class="data-point"/>
  <circle cx="370" cy="285" r="3" class="data-point"/>
  <circle cx="390" cy="320" r="3" class="data-point"/>
  <circle cx="410" cy="308" r="3" class="data-point"/>
  <circle cx="430" cy="338" r="3" class="data-point"/>
  <circle cx="450" cy="328" r="3" class="data-point"/>
  <circle cx="470" cy="352" r="3" class="data-point"/>
  <circle cx="490" cy="345" r="3" class="data-point"/>
  <circle cx="510" cy="362" r="3" class="data-point"/>
  <circle cx="530" cy="358" r="3" class="data-point"/>
  <circle cx="550" cy="370" r="3" class="data-point"/>
  <circle cx="570" cy="365" r="3" class="data-point"/>
  <circle cx="590" cy="376" r="3" class="data-point"/>
  <circle cx="610" cy="374" r="3" class="data-point"/>
  <circle cx="630" cy="380" r="3" class="data-point"/>
  <circle cx="650" cy="378" r="3" class="data-point"/>
  <circle cx="670" cy="383" r="3" class="data-point"/>
  <circle cx="690" cy="382" r="3" class="data-point"/>
  <circle cx="710" cy="386" r="3" class="data-point"/>
  <circle cx="730" cy="385" r="3" class="data-point"/>
  
  <!-- Legend -->
  <rect x="600" y="60" width="140" height="60" fill="#fff" stroke="#e5e5e5" stroke-width="1" rx="3"/>
  <line x1="610" y1="80" x2="640" y2="80" class="signal-line"/>
  <text x="650" y="84" class="legend-text">Fit (Signal)</text>
  <line x1="610" y1="100" x2="640" y2="100" class="background-line"/>
  <text x="650" y="104" class="legend-text">Background</text>
</svg>